<?xml version="1.0" encoding="UTF-8"?><svg id="Layer_1" xmlns="http://www.w3.org/2000/svg" width="122.16" height="81.89" viewBox="0 0 122.16 81.89"><polygon points="0 0 0 5.74 0 14.68 38.09 14.68 58.38 5.74 120.26 5.74 120.26 0 0 0" fill="#b5b5b5"/><g><g id="Speed_auto"><g><polygon points="44.51 33.23 46.89 27.44 52.71 25.13 39.01 19.47 44.51 33.23" fill="#d8d8d8"/><polygon points="81.02 70.21 86.84 67.9 89.22 62.11 94.72 75.88 81.02 70.21" fill="#d8d8d8"/><rect x="65.15" y="19.15" width="3.9" height="57.56" transform="translate(-14.33 60.93) rotate(-44.61)" fill="#d8d8d8"/></g></g><polygon id="Speed_4" points="104.81 33.17 122.16 40.51 103.09 68.18 90.1 54.51 104.81 33.17" fill="#d8d8d8"/><polygon id="Speed_3" points="104.3 32.82 86.95 25.48 76.61 40.48 89.59 54.15 104.3 32.82" fill="#d8d8d8"/><polygon id="Speed_2" points="69.24 17.9 86.59 25.24 76.25 40.23 63.27 26.56 69.24 17.9" fill="#d8d8d8"/><polygon id="Speed_1" points="68.86 17.63 51.51 10.29 49.91 12.62 62.89 26.29 68.86 17.63" fill="#d8d8d8"/></g></svg>