<?xml version="1.0" encoding="UTF-8"?><svg id="Layer_1" xmlns="http://www.w3.org/2000/svg" width="124.75" height="82.88" viewBox="0 0 124.75 82.88"><polygon points="0 0 0 5.74 0 14.68 38.09 14.68 58.38 5.74 120.26 5.74 120.26 0 0 0" fill="#b5b5b5"/><g id="Direction_auto"><path d="M62.81,74.9c20.52-2.52,49.7-23.28,53.98-53.96l4.07,.22c-5.03,30.87-31.19,53.93-57.83,57.84l-.22-4.1Z" fill="#d8d8d8"/><polygon points="112.94 23.2 119.05 21.17 124.75 24.15 119.98 9.68 112.94 23.2" fill="#d8d8d8"/><polygon points="65.08 71.06 63.05 77.17 66.03 82.88 51.56 78.1 65.08 71.06" fill="#d8d8d8"/></g><polygon id="Direction_4" points="47.07 66.46 51.53 9.68 51.96 9.68 56.93 66.28 47.07 66.46" fill="#d8d8d8"/><polygon id="Direction_3" points="74.18 62.04 51.56 9.78 51.93 9.58 82.82 57.26 74.18 62.04" fill="#d8d8d8"/><polygon id="Direction_2" points="98.07 42.82 51.63 9.86 51.84 9.49 102.97 34.26 98.07 42.82" fill="#d8d8d8"/><polygon id="Direction_1" points="107.89 19.31 51.73 9.89 51.76 9.47 108.58 9.46 107.89 19.31" fill="#d8d8d8"/></svg>